<mxfile host="app.diagrams.net" agent="Mozilla/5.0 (Windows NT 10.0; Win64; x64) AppleWebKit/537.36 (KHTML, like Gecko) Chrome/132.0.0.0 Safari/537.36 OPR/117.0.0.0" version="26.0.14">
  <diagram name="Page-1" id="3dF1ylbhX-f0zU8lbN6w">
    <mxGraphModel dx="1053" dy="656" grid="1" gridSize="10" guides="1" tooltips="1" connect="1" arrows="1" fold="1" page="1" pageScale="1" pageWidth="827" pageHeight="1169" math="0" shadow="0">
      <root>
        <mxCell id="0" />
        <mxCell id="1" parent="0" />
        <mxCell id="1pZZ6qmiSf2q0lY5F5ih-35" value="" style="rounded=1;whiteSpace=wrap;html=1;" vertex="1" parent="1">
          <mxGeometry x="580" y="313" width="250" height="90" as="geometry" />
        </mxCell>
        <mxCell id="1pZZ6qmiSf2q0lY5F5ih-32" value="" style="rounded=1;whiteSpace=wrap;html=1;" vertex="1" parent="1">
          <mxGeometry x="200" y="310" width="260" height="90" as="geometry" />
        </mxCell>
        <mxCell id="1pZZ6qmiSf2q0lY5F5ih-31" value="" style="ellipse;shape=cloud;whiteSpace=wrap;html=1;labelBackgroundColor=none;fontColor=default;fillColor=none;" vertex="1" parent="1">
          <mxGeometry x="40" y="90" width="920" height="440" as="geometry" />
        </mxCell>
        <mxCell id="1pZZ6qmiSf2q0lY5F5ih-17" value="frontend:nginx" style="shape=image;html=1;verticalAlign=top;verticalLabelPosition=bottom;labelBackgroundColor=#ffffff;imageAspect=0;aspect=fixed;image=https://cdn1.iconfinder.com/data/icons/unicons-line-vol-3/24/docker-128.png" vertex="1" parent="1">
          <mxGeometry x="395" y="315" width="38" height="38" as="geometry" />
        </mxCell>
        <mxCell id="1pZZ6qmiSf2q0lY5F5ih-1" value="Client" style="shape=image;html=1;verticalAlign=top;verticalLabelPosition=bottom;labelBackgroundColor=#ffffff;imageAspect=0;aspect=fixed;image=https://cdn0.iconfinder.com/data/icons/luisance_pack/128/ordinateur_portable_eteint.png" vertex="1" parent="1">
          <mxGeometry x="133" y="50" width="80" height="80" as="geometry" />
        </mxCell>
        <mxCell id="1pZZ6qmiSf2q0lY5F5ih-4" value="" style="outlineConnect=0;dashed=0;verticalLabelPosition=bottom;verticalAlign=top;align=center;html=1;shape=mxgraph.aws3.http_protocol;fillColor=#5294CF;gradientColor=none;" vertex="1" parent="1">
          <mxGeometry x="350" y="75" width="30" height="30" as="geometry" />
        </mxCell>
        <mxCell id="1pZZ6qmiSf2q0lY5F5ih-15" value="Worker-2" style="image;html=1;image=img/lib/clip_art/computers/Server_Tower_128x128.png" vertex="1" parent="1">
          <mxGeometry x="610" y="336" width="30" height="45" as="geometry" />
        </mxCell>
        <mxCell id="1pZZ6qmiSf2q0lY5F5ih-16" value="Worker-1" style="image;html=1;image=img/lib/clip_art/computers/Server_Tower_128x128.png" vertex="1" parent="1">
          <mxGeometry x="213" y="322" width="40" height="45" as="geometry" />
        </mxCell>
        <mxCell id="1pZZ6qmiSf2q0lY5F5ih-18" value="frontend:nginx" style="shape=image;html=1;verticalAlign=top;verticalLabelPosition=bottom;labelBackgroundColor=#ffffff;imageAspect=0;aspect=fixed;image=https://cdn1.iconfinder.com/data/icons/unicons-line-vol-3/24/docker-128.png" vertex="1" parent="1">
          <mxGeometry x="680" y="336" width="44" height="44" as="geometry" />
        </mxCell>
        <mxCell id="1pZZ6qmiSf2q0lY5F5ih-20" value="backend:api" style="shape=image;html=1;verticalAlign=top;verticalLabelPosition=bottom;labelBackgroundColor=#ffffff;imageAspect=0;aspect=fixed;image=https://cdn1.iconfinder.com/data/icons/unicons-line-vol-3/24/docker-128.png" vertex="1" parent="1">
          <mxGeometry x="770" y="337" width="44" height="44" as="geometry" />
        </mxCell>
        <mxCell id="1pZZ6qmiSf2q0lY5F5ih-21" value="backend:api" style="shape=image;html=1;verticalAlign=top;verticalLabelPosition=bottom;labelBackgroundColor=#ffffff;imageAspect=0;aspect=fixed;image=https://cdn1.iconfinder.com/data/icons/unicons-line-vol-3/24/docker-128.png" vertex="1" parent="1">
          <mxGeometry x="290" y="315" width="38" height="38" as="geometry" />
        </mxCell>
        <mxCell id="1pZZ6qmiSf2q0lY5F5ih-25" style="edgeStyle=orthogonalEdgeStyle;rounded=0;orthogonalLoop=1;jettySize=auto;html=1;entryX=0;entryY=0.5;entryDx=0;entryDy=0;entryPerimeter=0;" edge="1" parent="1" source="1pZZ6qmiSf2q0lY5F5ih-1" target="1pZZ6qmiSf2q0lY5F5ih-4">
          <mxGeometry relative="1" as="geometry" />
        </mxCell>
        <mxCell id="1pZZ6qmiSf2q0lY5F5ih-39" style="edgeStyle=orthogonalEdgeStyle;rounded=0;orthogonalLoop=1;jettySize=auto;html=1;entryX=0.5;entryY=0;entryDx=0;entryDy=0;" edge="1" parent="1" source="1pZZ6qmiSf2q0lY5F5ih-28" target="1pZZ6qmiSf2q0lY5F5ih-35">
          <mxGeometry relative="1" as="geometry" />
        </mxCell>
        <mxCell id="1pZZ6qmiSf2q0lY5F5ih-28" value="&lt;font style=&quot;font-size: 23px;&quot;&gt;Manager&lt;/font&gt;&lt;div&gt;&lt;/div&gt;" style="rounded=1;whiteSpace=wrap;html=1;fillColor=#dae8fc;strokeColor=#6c8ebf;shadow=0;glass=0;align=center;labelPosition=center;verticalLabelPosition=middle;verticalAlign=middle;spacingLeft=-30;" vertex="1" parent="1">
          <mxGeometry x="360" y="182.5" width="350" height="70" as="geometry" />
        </mxCell>
        <mxCell id="1pZZ6qmiSf2q0lY5F5ih-14" value="" style="image;html=1;image=img/lib/clip_art/computers/Server_Tower_128x128.png;imageBackground=none;" vertex="1" parent="1">
          <mxGeometry x="650" y="195" width="40" height="45" as="geometry" />
        </mxCell>
        <mxCell id="1pZZ6qmiSf2q0lY5F5ih-38" style="edgeStyle=orthogonalEdgeStyle;rounded=0;orthogonalLoop=1;jettySize=auto;html=1;entryX=0.46;entryY=0.05;entryDx=0;entryDy=0;entryPerimeter=0;" edge="1" parent="1" source="1pZZ6qmiSf2q0lY5F5ih-28" target="1pZZ6qmiSf2q0lY5F5ih-32">
          <mxGeometry relative="1" as="geometry" />
        </mxCell>
        <mxCell id="1pZZ6qmiSf2q0lY5F5ih-41" style="rounded=0;orthogonalLoop=1;jettySize=auto;html=1;entryX=0.521;entryY=0.118;entryDx=0;entryDy=0;entryPerimeter=0;strokeColor=default;curved=1;" edge="1" parent="1" source="1pZZ6qmiSf2q0lY5F5ih-4" target="1pZZ6qmiSf2q0lY5F5ih-31">
          <mxGeometry relative="1" as="geometry">
            <Array as="points">
              <mxPoint x="530" y="90" />
            </Array>
          </mxGeometry>
        </mxCell>
        <mxCell id="1pZZ6qmiSf2q0lY5F5ih-22" value="mysql:8.0" style="sketch=0;outlineConnect=0;fontColor=#232F3E;gradientColor=none;fillColor=#C925D1;strokeColor=none;dashed=0;verticalLabelPosition=bottom;verticalAlign=top;align=center;html=1;fontSize=12;fontStyle=0;aspect=fixed;pointerEvents=1;shape=mxgraph.aws4.rds_mysql_instance;" vertex="1" parent="1">
          <mxGeometry x="376" y="195" width="37.5" height="37.5" as="geometry" />
        </mxCell>
        <mxCell id="1pZZ6qmiSf2q0lY5F5ih-43" value="Overlay2" style="text;html=1;align=center;verticalAlign=middle;whiteSpace=wrap;rounded=1;fillColor=#d5e8d4;strokeColor=none;shadow=1;glass=0;" vertex="1" parent="1">
          <mxGeometry x="750" y="160" width="140" height="30" as="geometry" />
        </mxCell>
      </root>
    </mxGraphModel>
  </diagram>
</mxfile>
